<?xml version="1.0" encoding="utf-8"?>
<!-- Svg Vector Icons : http://www.onlinewebfonts.com/icon -->
<!DOCTYPE svg PUBLIC "-//W3C//DTD SVG 1.1//EN" "http://www.w3.org/Graphics/SVG/1.1/DTD/svg11.dtd">
<svg version="1.1" xmlns="http://www.w3.org/2000/svg" xmlns:xlink="http://www.w3.org/1999/xlink" x="0px" y="0px" viewBox="0 0 1000 1000" enable-background="new 0 0 1000 1000" xml:space="preserve">
<metadata> Svg Vector Icons : http://www.onlinewebfonts.com/icon </metadata>
<g><g><g><g><path style="fill:#A9B7B7;" d="M60.3,675.9c-27.8,0-50.3-22.5-50.3-50.3V374.4c0-27.8,22.5-50.3,50.3-50.3s50.3,22.5,50.3,50.3v251.3C110.5,653.4,88,675.9,60.3,675.9z"/></g><g><path style="fill:#A9B7B7;" d="M206.8,801.5c-27.8,0-50.3-22.5-50.3-50.3V248.7c0-27.8,22.5-50.3,50.3-50.3s50.3,22.5,50.3,50.3v502.6C257.1,779,234.6,801.5,206.8,801.5z"/></g><g><path style="fill:#A9B7B7;" d="M353.4,738.7c-27.8,0-50.3-22.5-50.3-50.3V311.5c0-27.8,22.5-50.3,50.3-50.3c27.8,0,50.3,22.5,50.3,50.3v376.9C403.7,716.2,381.2,738.7,353.4,738.7z"/></g><g><path style="fill:#A9B7B7;" d="M500,864.4c-27.8,0-50.3-22.5-50.3-50.3V185.9c0-27.8,22.5-50.3,50.3-50.3s50.3,22.5,50.3,50.3v628.2C550.3,841.9,527.8,864.4,500,864.4z"/></g><g><path style="fill:#A9B7B7;" d="M646.6,990c-27.7,0-50.3-22.5-50.3-50.3V60.3c0-27.8,22.5-50.3,50.3-50.3c27.8,0,50.3,22.5,50.3,50.3v879.5C696.8,967.5,674.3,990,646.6,990z"/></g><g><path style="fill:#A9B7B7;" d="M793.2,801.5c-27.8,0-50.3-22.5-50.3-50.3V248.7c0-27.8,22.5-50.3,50.3-50.3c27.7,0,50.3,22.5,50.3,50.3v502.6C843.4,779,820.9,801.5,793.2,801.5z"/></g><g><path style="fill:#A9B7B7;" d="M939.7,613.1c-27.8,0-50.3-22.5-50.3-50.2V437.2c0-27.8,22.5-50.3,50.3-50.3c27.8,0,50.3,22.5,50.3,50.3v125.6C990,590.6,967.5,613.1,939.7,613.1z"/></g></g></g><g></g><g></g><g></g><g></g><g></g><g></g><g></g><g></g><g></g><g></g><g></g><g></g><g></g><g></g><g></g></g>
</svg>